<svg xmlns="http://www.w3.org/2000/svg" viewBox="0 0 920 900" font-family="-apple-system,Segoe UI,Roboto,sans-serif">
<rect width="920" height="900" rx="18" fill="#12121f"/>
<text x="40" y="44" fill="#f4f5ff" font-size="22" font-weight="700">SleepON night — converted &amp; analysed</text>
<text x="40" y="68" fill="#a8b0d8" font-size="14">22,452 readings · 19:59 03/10 → 03:39 04/10 · local time (UTC-05:00)</text>
<text x="40" y="116" fill="#22d3ee" font-size="15" font-weight="600">Blood oxygen (SpO₂ %) — 90% threshold dashed, dips shaded</text>
<defs><linearGradient id="grad22d3ee" x1="0" x2="0" y1="0" y2="1"><stop offset="0%" stop-color="#22d3ee" stop-opacity=".45"/><stop offset="100%" stop-color="#22d3ee" stop-opacity="0"/></linearGradient></defs><line x1="60" y1="287.5" x2="890" y2="287.5" stroke="rgba(255,255,255,.08)"/><text x="52" y="291.5" fill="#6f78a8" font-size="13" text-anchor="end">72</text><line x1="60" y1="242.5" x2="890" y2="242.5" stroke="rgba(255,255,255,.08)"/><text x="52" y="246.5" fill="#6f78a8" font-size="13" text-anchor="end">80</text><line x1="60" y1="197.5" x2="890" y2="197.5" stroke="rgba(255,255,255,.08)"/><text x="52" y="201.5" fill="#6f78a8" font-size="13" text-anchor="end">88</text><line x1="60" y1="152.5" x2="890" y2="152.5" stroke="rgba(255,255,255,.08)"/><text x="52" y="156.5" fill="#6f78a8" font-size="13" text-anchor="end">96</text><line x1="60" y1="186.25" x2="890" y2="186.25" stroke="rgba(255,92,108,.6)" stroke-width="1.5" stroke-dasharray="5 4"/><text x="60" y="328" fill="#6f78a8" font-size="12" text-anchor="middle">19:59</text><text x="267.5" y="328" fill="#6f78a8" font-size="12" text-anchor="middle">21:54</text><text x="475" y="328" fill="#6f78a8" font-size="12" text-anchor="middle">23:49</text><text x="682.5" y="328" fill="#6f78a8" font-size="12" text-anchor="middle">01:44</text><text x="890" y="328" fill="#6f78a8" font-size="12" text-anchor="middle">03:39</text><path d="M60.0 158.1 L61.4 158.1 L62.8 158.1 L64.2 158.1 L65.5 158.1 L66.9 158.1 L68.3 152.5 L69.7 158.1 L71.1 152.5 L72.5 152.5 L73.9 152.5 L75.2 158.1 L76.6 158.1 L78.0 158.1 L79.4 158.1 L80.8 158.1 L82.2 158.1 L83.6 158.1 L84.9 158.1 L86.3 158.1 L87.7 158.1 L89.1 158.1 L90.5 158.1 L91.9 158.1 L93.3 158.1 L94.6 158.1 L96.0 158.1 L97.4 158.1 L98.8 158.1 L100.2 152.5 L101.6 152.5 L103.0 158.1 L104.3 152.5 L105.7 158.1 L107.1 158.1 L108.5 158.1 L109.9 158.1 L111.3 158.1 L112.7 169.4 L114.0 169.4 L115.4 169.4 L116.8 163.8 L118.2 163.8 L119.6 163.8 L121.0 163.8 L122.4 163.8 L123.7 163.8 L125.1 163.8 L126.5 163.8 L127.9 163.8 L129.3 163.8 L130.7 158.1 L132.1 169.4 L133.4 169.4 L134.8 158.1 L136.2 158.1 L137.6 158.1 L139.0 158.1 L140.4 158.1 L141.8 158.1 L143.1 158.1 L144.5 158.1 L145.9 158.1 L147.3 158.1 L148.7 158.1 L150.1 163.8 L151.5 220.0 L152.8 287.5 L154.2 298.8 L155.6 231.3 L157.0 191.9 L158.4 197.5 L159.8 225.6 L161.2 225.6 L162.5 203.1 L163.9 203.1 L165.3 208.8 L166.7 203.1 L168.1 186.3 L169.5 175.0 L170.9 180.6 L172.2 175.0 L173.6 180.6 L175.0 197.5 L176.4 197.5 L177.8 180.6 L179.2 186.3 L180.6 180.6 L181.9 180.6 L183.3 180.6 L184.7 180.6 L186.1 186.3 L187.5 180.6 L188.9 186.3 L190.3 175.0 L191.6 180.6 L193.0 180.6 L194.4 180.6 L195.8 180.6 L197.2 175.0 L198.6 203.1 L199.9 180.6 L201.3 175.0 L202.7 191.9 L204.1 175.0 L205.5 186.3 L206.9 180.6 L208.3 180.6 L209.6 175.0 L211.0 158.1 L212.4 158.1 L213.8 163.8 L215.2 169.4 L216.6 175.0 L218.0 163.8 L219.3 163.8 L220.7 163.8 L222.1 163.8 L223.5 163.8 L224.9 163.8 L226.3 163.8 L227.7 163.8 L229.0 169.4 L230.4 163.8 L231.8 169.4 L233.2 163.8 L234.6 163.8 L236.0 163.8 L237.4 163.8 L238.7 163.8 L240.1 163.8 L241.5 163.8 L242.9 163.8 L244.3 163.8 L245.7 163.8 L247.1 158.1 L248.4 163.8 L249.8 163.8 L251.2 163.8 L252.6 163.8 L254.0 169.4 L255.4 163.8 L256.8 163.8 L258.1 163.8 L259.5 163.8 L260.9 169.4 L262.3 163.8 L263.7 163.8 L265.1 163.8 L266.5 163.8 L267.8 163.8 L269.2 158.1 L270.6 163.8 L272.0 175.0 L273.4 175.0 L274.8 175.0 L276.2 163.8 L277.5 175.0 L278.9 158.1 L280.3 158.1 L281.7 152.5 L283.1 158.1 L284.5 152.5 L285.9 158.1 L287.2 158.1 L288.6 158.1 L290.0 158.1 L291.4 163.8 L292.8 169.4 L294.2 163.8 L295.6 158.1 L296.9 169.4 L298.3 158.1 L299.7 158.1 L301.1 158.1 L302.5 163.8 L303.9 158.1 L305.3 163.8 L306.6 158.1 L308.0 152.5 L309.4 152.5 L310.8 152.5 L312.2 152.5 L313.6 158.1 L315.0 163.8 L316.3 158.1 L317.7 163.8 L319.1 163.8 L320.5 169.4 L321.9 175.0 L323.3 163.8 L324.7 158.1 L326.0 158.1 L327.4 163.8 L328.8 158.1 L330.2 152.5 L331.6 158.1 L333.0 163.8 L334.4 163.8 L335.7 163.8 L337.1 158.1 L338.5 163.8 L339.9 163.8 L341.3 175.0 L342.7 169.4 L344.1 163.8 L345.4 163.8 L346.8 186.3 L348.2 169.4 L349.6 180.6 L351.0 163.8 L352.4 175.0 L353.8 169.4 L355.1 163.8 L356.5 152.5 L357.9 158.1 L359.3 152.5 L360.7 158.1 L362.1 158.1 L363.5 163.8 L364.8 163.8 L366.2 169.4 L367.6 169.4 L369.0 175.0 L370.4 180.6 L371.8 169.4 L373.2 231.3 L374.5 175.0 L375.9 175.0 L377.3 175.0 L378.7 169.4 L380.1 214.4 L381.5 163.8 L382.9 169.4 L384.2 175.0 L385.6 175.0 L387.0 175.0 L388.4 175.0 L389.8 175.0 L391.2 175.0 L392.6 197.5 L393.9 180.6 L395.3 180.6 L396.7 180.6 L398.1 169.4 L399.5 163.8 L400.9 169.4 L402.3 169.4 L403.6 163.8 L405.0 163.8 L406.4 175.0 L407.8 169.4 L409.2 169.4 L410.6 169.4 L412.0 163.8 L413.3 163.8 L414.7 163.8 L416.1 169.4 L417.5 169.4 L418.9 175.0 L420.3 169.4 L421.7 169.4 L423.0 169.4 L424.4 163.8 L425.8 163.8 L427.2 163.8 L428.6 163.8 L430.0 175.0 L431.4 169.4 L432.7 169.4 L434.1 169.4 L435.5 169.4 L436.9 169.4 L438.3 163.8 L439.7 169.4 L441.1 175.0 L442.4 169.4 L443.8 169.4 L445.2 169.4 L446.6 169.4 L448.0 169.4 L449.4 175.0 L450.8 175.0 L452.1 175.0 L453.5 169.4 L454.9 180.6 L456.3 175.0 L457.7 152.5 L459.1 169.4 L460.5 169.4 L461.8 175.0 L463.2 175.0 L464.6 169.4 L466.0 163.8 L467.4 169.4 L468.8 175.0 L470.2 186.3 L471.5 163.8 L472.9 158.1 L474.3 163.8 L475.7 158.1 L477.1 158.1 L478.5 158.1 L479.8 158.1 L481.2 158.1 L482.6 158.1 L484.0 163.8 L485.4 163.8 L486.8 158.1 L488.2 158.1 L489.5 158.1 L490.9 158.1 L492.3 158.1 L493.7 158.1 L495.1 158.1 L496.5 158.1 L497.9 158.1 L499.2 158.1 L500.6 158.1 L502.0 158.1 L503.4 158.1 L504.8 158.1 L506.2 158.1 L507.6 158.1 L508.9 158.1 L510.3 158.1 L511.7 158.1 L513.1 158.1 L514.5 158.1 L515.9 158.1 L517.3 158.1 L518.6 152.5 L520.0 158.1 L521.4 158.1 L522.8 158.1 L524.2 158.1 L525.6 158.1 L527.0 158.1 L528.3 158.1 L529.7 152.5 L531.1 152.5 L532.5 152.5 L533.9 163.8 L535.3 158.1 L536.7 158.1 L538.0 158.1 L539.4 158.1 L540.8 158.1 L542.2 158.1 L543.6 158.1 L545.0 158.1 L546.4 152.5 L547.7 158.1 L549.1 163.8 L550.5 158.1 L551.9 158.1 L553.3 152.5 L554.7 158.1 L556.1 163.8 L557.4 163.8 L558.8 152.5 L560.2 158.1 L561.6 163.8 L563.0 163.8 L564.4 163.8 L565.8 163.8 L567.1 152.5 L568.5 158.1 L569.9 158.1 L571.3 158.1 L572.7 158.1 L574.1 163.8 L575.5 163.8 L576.8 169.4 L578.2 169.4 L579.6 163.8 L581.0 163.8 L582.4 169.4 L583.8 169.4 L585.2 158.1 L586.5 158.1 L587.9 158.1 L589.3 158.1 L590.7 158.1 L592.1 163.8 L593.5 175.0 L594.9 163.8 L596.2 158.1 L597.6 163.8 L599.0 163.8 L600.4 158.1 L601.8 163.8 L603.2 163.8 L604.6 163.8 L605.9 163.8 L607.3 163.8 L608.7 158.1 L610.1 152.5 L611.5 158.1 L612.9 169.4 L614.3 169.4 L615.6 169.4 L617.0 175.0 L618.4 169.4 L619.8 169.4 L621.2 175.0 L622.6 175.0 L624.0 158.1 L625.3 158.1 L626.7 158.1 L628.1 175.0 L629.5 163.8 L630.9 158.1 L632.3 163.8 L633.7 163.8 L635.0 180.6 L636.4 180.6 L637.8 158.1 L639.2 158.1 L640.6 163.8 L642.0 158.1 L643.4 158.1 L644.7 163.8 L646.1 158.1 L647.5 158.1 L648.9 158.1 L650.3 152.5 L651.7 163.8 L653.1 163.8 L654.4 163.8 L655.8 163.8 L657.2 158.1 L658.6 163.8 L660.0 163.8 L661.4 163.8 L662.8 163.8 L664.1 158.1 L665.5 163.8 L666.9 163.8 L668.3 158.1 L669.7 158.1 L671.1 158.1 L672.5 158.1 L673.8 158.1 L675.2 163.8 L676.6 163.8 L678.0 158.1 L679.4 158.1 L680.8 158.1 L682.2 163.8 L683.5 158.1 L684.9 158.1 L686.3 152.5 L687.7 152.5 L689.1 163.8 L690.5 158.1 L691.9 152.5 L693.2 158.1 L694.6 163.8 L696.0 152.5 L697.4 158.1 L698.8 158.1 L700.2 158.1 L701.6 152.5 L702.9 152.5 L704.3 158.1 L705.7 152.5 L707.1 158.1 L708.5 158.1 L709.9 158.1 L711.3 158.1 L712.6 158.1 L714.0 158.1 L715.4 158.1 L716.8 158.1 L718.2 158.1 L719.6 158.1 L721.0 158.1 L722.3 158.1 L723.7 158.1 L725.1 158.1 L726.5 163.8 L727.9 169.4 L729.3 163.8 L730.7 158.1 L732.0 163.8 L733.4 175.0 L734.8 169.4 L736.2 169.4 L737.6 163.8 L739.0 163.8 L740.4 163.8 L741.7 169.4 L743.1 169.4 L744.5 169.4 L745.9 163.8 L747.3 163.8 L748.7 169.4 L750.1 175.0 L751.4 175.0 L752.8 231.3 L754.2 225.6 L755.6 186.3 L757.0 175.0 L758.4 169.4 L759.7 180.6 L761.1 169.4 L762.5 214.4 L763.9 180.6 L765.3 180.6 L766.7 169.4 L768.1 163.8 L769.4 169.4 L770.8 169.4 L772.2 169.4 L773.6 163.8 L775.0 163.8 L776.4 163.8 L777.8 163.8 L779.1 163.8 L780.5 163.8 L781.9 158.1 L783.3 158.1 L784.7 158.1 L786.1 169.4 L787.5 175.0 L788.8 163.8 L790.2 169.4 L791.6 163.8 L793.0 163.8 L794.4 169.4 L795.8 175.0 L797.2 175.0 L798.5 180.6 L799.9 180.6 L801.3 191.9 L802.7 236.9 L804.1 175.0 L805.5 191.9 L806.9 175.0 L808.2 175.0 L809.6 214.4 L811.0 186.3 L812.4 214.4 L813.8 191.9 L815.2 175.0 L816.6 169.4 L817.9 169.4 L819.3 186.3 L820.7 175.0 L822.1 175.0 L823.5 169.4 L824.9 169.4 L826.3 158.1 L827.6 158.1 L829.0 158.1 L830.4 158.1 L831.8 158.1 L833.2 163.8 L834.6 158.1 L836.0 158.1 L837.3 158.1 L838.7 158.1 L840.1 158.1 L841.5 158.1 L842.9 169.4 L844.3 175.0 L845.7 175.0 L847.0 175.0 L848.4 175.0 L849.8 169.4 L851.2 175.0 L852.6 175.0 L854.0 191.9 L855.4 208.8 L856.7 236.9 L858.1 298.8 L859.5 191.9 L860.9 180.6 L862.3 163.8 L863.7 158.1 L865.1 163.8 L866.4 163.8 L867.8 163.8 L869.2 169.4 L870.6 169.4 L872.0 169.4 L873.4 169.4 L874.8 163.8 L876.1 163.8 L877.5 163.8 L878.9 163.8 L880.3 169.4 L881.7 152.5 L883.1 152.5 L884.5 158.1 L885.8 158.1 L887.2 152.5 L888.6 163.8 L890.0 169.4 L890 310 L60 310 Z" fill="url(#grad22d3ee)"/><path d="M151.45242070116862 220 L152.8380634390651 287.5 L154.2237061769616 298.75 L155.6093489148581 231.25 L156.9949916527546 191.875 L158.3806343906511 197.5 L159.76627712854759 225.625 L161.15191986644408 225.625 L162.53756260434056 203.125 L163.92320534223705 203.125 L165.30884808013354 208.75 L166.69449081803006 203.125 L166.69449081803006 310 L151.45242070116862 310 ZM175.00834724540903 197.5 L176.39398998330552 197.5 L176.39398998330552 310 L175.00834724540903 310 ZM198.5642737896494 203.125 L198.5642737896494 310 L198.5642737896494 310 ZM202.7212020033389 191.875 L202.7212020033389 310 L202.7212020033389 310 ZM373.15525876460765 231.25 L373.15525876460765 310 L373.15525876460765 310 ZM380.08347245409016 214.375 L380.08347245409016 310 L380.08347245409016 310 ZM392.5542570951586 197.5 L392.5542570951586 310 L392.5542570951586 310 ZM752.821368948247 231.25 L754.2070116861436 225.625 L754.2070116861436 310 L752.821368948247 310 ZM762.5208681135225 214.375 L762.5208681135225 310 L762.5208681135225 310 ZM801.3188647746243 191.875 L802.7045075125209 236.875 L802.7045075125209 310 L801.3188647746243 310 ZM805.4757929883139 191.875 L805.4757929883139 310 L805.4757929883139 310 ZM809.6327212020034 214.375 L809.6327212020034 310 L809.6327212020034 310 ZM812.4040066777964 214.375 L813.7896494156928 191.875 L813.7896494156928 310 L812.4040066777964 310 ZM853.9732888146912 191.875 L855.3589315525876 208.75 L856.7445742904841 236.875 L858.1302170283807 298.75 L859.5158597662771 191.875 L859.5158597662771 310 L853.9732888146912 310 Z" fill="rgba(255,92,108,.25)"/><path d="M60.0 158.1 L61.4 158.1 L62.8 158.1 L64.2 158.1 L65.5 158.1 L66.9 158.1 L68.3 152.5 L69.7 158.1 L71.1 152.5 L72.5 152.5 L73.9 152.5 L75.2 158.1 L76.6 158.1 L78.0 158.1 L79.4 158.1 L80.8 158.1 L82.2 158.1 L83.6 158.1 L84.9 158.1 L86.3 158.1 L87.7 158.1 L89.1 158.1 L90.5 158.1 L91.9 158.1 L93.3 158.1 L94.6 158.1 L96.0 158.1 L97.4 158.1 L98.8 158.1 L100.2 152.5 L101.6 152.5 L103.0 158.1 L104.3 152.5 L105.7 158.1 L107.1 158.1 L108.5 158.1 L109.9 158.1 L111.3 158.1 L112.7 169.4 L114.0 169.4 L115.4 169.4 L116.8 163.8 L118.2 163.8 L119.6 163.8 L121.0 163.8 L122.4 163.8 L123.7 163.8 L125.1 163.8 L126.5 163.8 L127.9 163.8 L129.3 163.8 L130.7 158.1 L132.1 169.4 L133.4 169.4 L134.8 158.1 L136.2 158.1 L137.6 158.1 L139.0 158.1 L140.4 158.1 L141.8 158.1 L143.1 158.1 L144.5 158.1 L145.9 158.1 L147.3 158.1 L148.7 158.1 L150.1 163.8 L151.5 220.0 L152.8 287.5 L154.2 298.8 L155.6 231.3 L157.0 191.9 L158.4 197.5 L159.8 225.6 L161.2 225.6 L162.5 203.1 L163.9 203.1 L165.3 208.8 L166.7 203.1 L168.1 186.3 L169.5 175.0 L170.9 180.6 L172.2 175.0 L173.6 180.6 L175.0 197.5 L176.4 197.5 L177.8 180.6 L179.2 186.3 L180.6 180.6 L181.9 180.6 L183.3 180.6 L184.7 180.6 L186.1 186.3 L187.5 180.6 L188.9 186.3 L190.3 175.0 L191.6 180.6 L193.0 180.6 L194.4 180.6 L195.8 180.6 L197.2 175.0 L198.6 203.1 L199.9 180.6 L201.3 175.0 L202.7 191.9 L204.1 175.0 L205.5 186.3 L206.9 180.6 L208.3 180.6 L209.6 175.0 L211.0 158.1 L212.4 158.1 L213.8 163.8 L215.2 169.4 L216.6 175.0 L218.0 163.8 L219.3 163.8 L220.7 163.8 L222.1 163.8 L223.5 163.8 L224.9 163.8 L226.3 163.8 L227.7 163.8 L229.0 169.4 L230.4 163.8 L231.8 169.4 L233.2 163.8 L234.6 163.8 L236.0 163.8 L237.4 163.8 L238.7 163.8 L240.1 163.8 L241.5 163.8 L242.9 163.8 L244.3 163.8 L245.7 163.8 L247.1 158.1 L248.4 163.8 L249.8 163.8 L251.2 163.8 L252.6 163.8 L254.0 169.4 L255.4 163.8 L256.8 163.8 L258.1 163.8 L259.5 163.8 L260.9 169.4 L262.3 163.8 L263.7 163.8 L265.1 163.8 L266.5 163.8 L267.8 163.8 L269.2 158.1 L270.6 163.8 L272.0 175.0 L273.4 175.0 L274.8 175.0 L276.2 163.8 L277.5 175.0 L278.9 158.1 L280.3 158.1 L281.7 152.5 L283.1 158.1 L284.5 152.5 L285.9 158.1 L287.2 158.1 L288.6 158.1 L290.0 158.1 L291.4 163.8 L292.8 169.4 L294.2 163.8 L295.6 158.1 L296.9 169.4 L298.3 158.1 L299.7 158.1 L301.1 158.1 L302.5 163.8 L303.9 158.1 L305.3 163.8 L306.6 158.1 L308.0 152.5 L309.4 152.5 L310.8 152.5 L312.2 152.5 L313.6 158.1 L315.0 163.8 L316.3 158.1 L317.7 163.8 L319.1 163.8 L320.5 169.4 L321.9 175.0 L323.3 163.8 L324.7 158.1 L326.0 158.1 L327.4 163.8 L328.8 158.1 L330.2 152.5 L331.6 158.1 L333.0 163.8 L334.4 163.8 L335.7 163.8 L337.1 158.1 L338.5 163.8 L339.9 163.8 L341.3 175.0 L342.7 169.4 L344.1 163.8 L345.4 163.8 L346.8 186.3 L348.2 169.4 L349.6 180.6 L351.0 163.8 L352.4 175.0 L353.8 169.4 L355.1 163.8 L356.5 152.5 L357.9 158.1 L359.3 152.5 L360.7 158.1 L362.1 158.1 L363.5 163.8 L364.8 163.8 L366.2 169.4 L367.6 169.4 L369.0 175.0 L370.4 180.6 L371.8 169.4 L373.2 231.3 L374.5 175.0 L375.9 175.0 L377.3 175.0 L378.7 169.4 L380.1 214.4 L381.5 163.8 L382.9 169.4 L384.2 175.0 L385.6 175.0 L387.0 175.0 L388.4 175.0 L389.8 175.0 L391.2 175.0 L392.6 197.5 L393.9 180.6 L395.3 180.6 L396.7 180.6 L398.1 169.4 L399.5 163.8 L400.9 169.4 L402.3 169.4 L403.6 163.8 L405.0 163.8 L406.4 175.0 L407.8 169.4 L409.2 169.4 L410.6 169.4 L412.0 163.8 L413.3 163.8 L414.7 163.8 L416.1 169.4 L417.5 169.4 L418.9 175.0 L420.3 169.4 L421.7 169.4 L423.0 169.4 L424.4 163.8 L425.8 163.8 L427.2 163.8 L428.6 163.8 L430.0 175.0 L431.4 169.4 L432.7 169.4 L434.1 169.4 L435.5 169.4 L436.9 169.4 L438.3 163.8 L439.7 169.4 L441.1 175.0 L442.4 169.4 L443.8 169.4 L445.2 169.4 L446.6 169.4 L448.0 169.4 L449.4 175.0 L450.8 175.0 L452.1 175.0 L453.5 169.4 L454.9 180.6 L456.3 175.0 L457.7 152.5 L459.1 169.4 L460.5 169.4 L461.8 175.0 L463.2 175.0 L464.6 169.4 L466.0 163.8 L467.4 169.4 L468.8 175.0 L470.2 186.3 L471.5 163.8 L472.9 158.1 L474.3 163.8 L475.7 158.1 L477.1 158.1 L478.5 158.1 L479.8 158.1 L481.2 158.1 L482.6 158.1 L484.0 163.8 L485.4 163.8 L486.8 158.1 L488.2 158.1 L489.5 158.1 L490.9 158.1 L492.3 158.1 L493.7 158.1 L495.1 158.1 L496.5 158.1 L497.9 158.1 L499.2 158.1 L500.6 158.1 L502.0 158.1 L503.4 158.1 L504.8 158.1 L506.2 158.1 L507.6 158.1 L508.9 158.1 L510.3 158.1 L511.7 158.1 L513.1 158.1 L514.5 158.1 L515.9 158.1 L517.3 158.1 L518.6 152.5 L520.0 158.1 L521.4 158.1 L522.8 158.1 L524.2 158.1 L525.6 158.1 L527.0 158.1 L528.3 158.1 L529.7 152.5 L531.1 152.5 L532.5 152.5 L533.9 163.8 L535.3 158.1 L536.7 158.1 L538.0 158.1 L539.4 158.1 L540.8 158.1 L542.2 158.1 L543.6 158.1 L545.0 158.1 L546.4 152.5 L547.7 158.1 L549.1 163.8 L550.5 158.1 L551.9 158.1 L553.3 152.5 L554.7 158.1 L556.1 163.8 L557.4 163.8 L558.8 152.5 L560.2 158.1 L561.6 163.8 L563.0 163.8 L564.4 163.8 L565.8 163.8 L567.1 152.5 L568.5 158.1 L569.9 158.1 L571.3 158.1 L572.7 158.1 L574.1 163.8 L575.5 163.8 L576.8 169.4 L578.2 169.4 L579.6 163.8 L581.0 163.8 L582.4 169.4 L583.8 169.4 L585.2 158.1 L586.5 158.1 L587.9 158.1 L589.3 158.1 L590.7 158.1 L592.1 163.8 L593.5 175.0 L594.9 163.8 L596.2 158.1 L597.6 163.8 L599.0 163.8 L600.4 158.1 L601.8 163.8 L603.2 163.8 L604.6 163.8 L605.9 163.8 L607.3 163.8 L608.7 158.1 L610.1 152.5 L611.5 158.1 L612.9 169.4 L614.3 169.4 L615.6 169.4 L617.0 175.0 L618.4 169.4 L619.8 169.4 L621.2 175.0 L622.6 175.0 L624.0 158.1 L625.3 158.1 L626.7 158.1 L628.1 175.0 L629.5 163.8 L630.9 158.1 L632.3 163.8 L633.7 163.8 L635.0 180.6 L636.4 180.6 L637.8 158.1 L639.2 158.1 L640.6 163.8 L642.0 158.1 L643.4 158.1 L644.7 163.8 L646.1 158.1 L647.5 158.1 L648.9 158.1 L650.3 152.5 L651.7 163.8 L653.1 163.8 L654.4 163.8 L655.8 163.8 L657.2 158.1 L658.6 163.8 L660.0 163.8 L661.4 163.8 L662.8 163.8 L664.1 158.1 L665.5 163.8 L666.9 163.8 L668.3 158.1 L669.7 158.1 L671.1 158.1 L672.5 158.1 L673.8 158.1 L675.2 163.8 L676.6 163.8 L678.0 158.1 L679.4 158.1 L680.8 158.1 L682.2 163.8 L683.5 158.1 L684.9 158.1 L686.3 152.5 L687.7 152.5 L689.1 163.8 L690.5 158.1 L691.9 152.5 L693.2 158.1 L694.6 163.8 L696.0 152.5 L697.4 158.1 L698.8 158.1 L700.2 158.1 L701.6 152.5 L702.9 152.5 L704.3 158.1 L705.7 152.5 L707.1 158.1 L708.5 158.1 L709.9 158.1 L711.3 158.1 L712.6 158.1 L714.0 158.1 L715.4 158.1 L716.8 158.1 L718.2 158.1 L719.6 158.1 L721.0 158.1 L722.3 158.1 L723.7 158.1 L725.1 158.1 L726.5 163.8 L727.9 169.4 L729.3 163.8 L730.7 158.1 L732.0 163.8 L733.4 175.0 L734.8 169.4 L736.2 169.4 L737.6 163.8 L739.0 163.8 L740.4 163.8 L741.7 169.4 L743.1 169.4 L744.5 169.4 L745.9 163.8 L747.3 163.8 L748.7 169.4 L750.1 175.0 L751.4 175.0 L752.8 231.3 L754.2 225.6 L755.6 186.3 L757.0 175.0 L758.4 169.4 L759.7 180.6 L761.1 169.4 L762.5 214.4 L763.9 180.6 L765.3 180.6 L766.7 169.4 L768.1 163.8 L769.4 169.4 L770.8 169.4 L772.2 169.4 L773.6 163.8 L775.0 163.8 L776.4 163.8 L777.8 163.8 L779.1 163.8 L780.5 163.8 L781.9 158.1 L783.3 158.1 L784.7 158.1 L786.1 169.4 L787.5 175.0 L788.8 163.8 L790.2 169.4 L791.6 163.8 L793.0 163.8 L794.4 169.4 L795.8 175.0 L797.2 175.0 L798.5 180.6 L799.9 180.6 L801.3 191.9 L802.7 236.9 L804.1 175.0 L805.5 191.9 L806.9 175.0 L808.2 175.0 L809.6 214.4 L811.0 186.3 L812.4 214.4 L813.8 191.9 L815.2 175.0 L816.6 169.4 L817.9 169.4 L819.3 186.3 L820.7 175.0 L822.1 175.0 L823.5 169.4 L824.9 169.4 L826.3 158.1 L827.6 158.1 L829.0 158.1 L830.4 158.1 L831.8 158.1 L833.2 163.8 L834.6 158.1 L836.0 158.1 L837.3 158.1 L838.7 158.1 L840.1 158.1 L841.5 158.1 L842.9 169.4 L844.3 175.0 L845.7 175.0 L847.0 175.0 L848.4 175.0 L849.8 169.4 L851.2 175.0 L852.6 175.0 L854.0 191.9 L855.4 208.8 L856.7 236.9 L858.1 298.8 L859.5 191.9 L860.9 180.6 L862.3 163.8 L863.7 158.1 L865.1 163.8 L866.4 163.8 L867.8 163.8 L869.2 169.4 L870.6 169.4 L872.0 169.4 L873.4 169.4 L874.8 163.8 L876.1 163.8 L877.5 163.8 L878.9 163.8 L880.3 169.4 L881.7 152.5 L883.1 152.5 L884.5 158.1 L885.8 158.1 L887.2 152.5 L888.6 163.8 L890.0 169.4 " fill="none" stroke="#22d3ee" stroke-width="2" stroke-linejoin="round"/>
<text x="40" y="376" fill="#ff52a8" font-size="15" font-weight="600">Pulse rate (bpm)</text>
<defs><linearGradient id="gradff52a8" x1="0" x2="0" y1="0" y2="1"><stop offset="0%" stop-color="#ff52a8" stop-opacity=".45"/><stop offset="100%" stop-color="#ff52a8" stop-opacity="0"/></linearGradient></defs><line x1="60" y1="518.8732394366198" x2="890" y2="518.8732394366198" stroke="rgba(255,255,255,.08)"/><text x="52" y="522.8732394366198" fill="#6f78a8" font-size="13" text-anchor="end">54</text><line x1="60" y1="480.84507042253523" x2="890" y2="480.84507042253523" stroke="rgba(255,255,255,.08)"/><text x="52" y="484.84507042253523" fill="#6f78a8" font-size="13" text-anchor="end">72</text><line x1="60" y1="442.8169014084507" x2="890" y2="442.8169014084507" stroke="rgba(255,255,255,.08)"/><text x="52" y="446.8169014084507" fill="#6f78a8" font-size="13" text-anchor="end">90</text><line x1="60" y1="404.7887323943662" x2="890" y2="404.7887323943662" stroke="rgba(255,255,255,.08)"/><text x="52" y="408.7887323943662" fill="#6f78a8" font-size="13" text-anchor="end">108</text><text x="60" y="558" fill="#6f78a8" font-size="12" text-anchor="middle">19:59</text><text x="267.5" y="558" fill="#6f78a8" font-size="12" text-anchor="middle">21:54</text><text x="475" y="558" fill="#6f78a8" font-size="12" text-anchor="middle">23:49</text><text x="682.5" y="558" fill="#6f78a8" font-size="12" text-anchor="middle">01:44</text><text x="890" y="558" fill="#6f78a8" font-size="12" text-anchor="middle">03:39</text><path d="M60.0 497.7 L61.4 499.9 L62.8 508.3 L64.2 502.0 L65.5 504.1 L66.9 506.2 L68.3 502.0 L69.7 506.2 L71.1 491.4 L72.5 493.5 L73.9 497.7 L75.2 497.7 L76.6 491.4 L78.0 497.7 L79.4 506.2 L80.8 508.3 L82.2 493.5 L83.6 510.4 L84.9 504.1 L86.3 502.0 L87.7 504.1 L89.1 504.1 L90.5 512.5 L91.9 508.3 L93.3 504.1 L94.6 502.0 L96.0 499.9 L97.4 499.9 L98.8 510.4 L100.2 497.7 L101.6 512.5 L103.0 510.4 L104.3 514.6 L105.7 512.5 L107.1 495.6 L108.5 512.5 L109.9 514.6 L111.3 495.6 L112.7 504.1 L114.0 499.9 L115.4 504.1 L116.8 504.1 L118.2 499.9 L119.6 502.0 L121.0 508.3 L122.4 502.0 L123.7 506.2 L125.1 512.5 L126.5 512.5 L127.9 502.0 L129.3 514.6 L130.7 506.2 L132.1 502.0 L133.4 499.9 L134.8 506.2 L136.2 504.1 L137.6 508.3 L139.0 516.8 L140.4 512.5 L141.8 512.5 L143.1 510.4 L144.5 508.3 L145.9 506.2 L147.3 504.1 L148.7 508.3 L150.1 502.0 L151.5 493.5 L152.8 493.5 L154.2 499.9 L155.6 499.9 L157.0 504.1 L158.4 497.7 L159.8 497.7 L161.2 497.7 L162.5 495.6 L163.9 497.7 L165.3 497.7 L166.7 497.7 L168.1 502.0 L169.5 495.6 L170.9 508.3 L172.2 497.7 L173.6 495.6 L175.0 497.7 L176.4 497.7 L177.8 504.1 L179.2 497.7 L180.6 495.6 L181.9 495.6 L183.3 499.9 L184.7 499.9 L186.1 499.9 L187.5 499.9 L188.9 499.9 L190.3 495.6 L191.6 495.6 L193.0 497.7 L194.4 497.7 L195.8 499.9 L197.2 510.4 L198.6 499.9 L199.9 499.9 L201.3 502.0 L202.7 497.7 L204.1 504.1 L205.5 499.9 L206.9 497.7 L208.3 497.7 L209.6 510.4 L211.0 510.4 L212.4 495.6 L213.8 499.9 L215.2 506.2 L216.6 514.6 L218.0 508.3 L219.3 506.2 L220.7 499.9 L222.1 497.7 L223.5 497.7 L224.9 510.4 L226.3 508.3 L227.7 497.7 L229.0 499.9 L230.4 502.0 L231.8 497.7 L233.2 499.9 L234.6 502.0 L236.0 502.0 L237.4 502.0 L238.7 504.1 L240.1 497.7 L241.5 499.9 L242.9 497.7 L244.3 497.7 L245.7 508.3 L247.1 499.9 L248.4 497.7 L249.8 504.1 L251.2 504.1 L252.6 502.0 L254.0 495.6 L255.4 495.6 L256.8 504.1 L258.1 499.9 L259.5 497.7 L260.9 504.1 L262.3 506.2 L263.7 504.1 L265.1 499.9 L266.5 497.7 L267.8 497.7 L269.2 508.3 L270.6 504.1 L272.0 510.4 L273.4 504.1 L274.8 514.6 L276.2 502.0 L277.5 504.1 L278.9 504.1 L280.3 508.3 L281.7 506.2 L283.1 502.0 L284.5 495.6 L285.9 493.5 L287.2 508.3 L288.6 510.4 L290.0 495.6 L291.4 493.5 L292.8 499.9 L294.2 510.4 L295.6 499.9 L296.9 510.4 L298.3 512.5 L299.7 504.1 L301.1 499.9 L302.5 518.9 L303.9 504.1 L305.3 495.6 L306.6 506.2 L308.0 504.1 L309.4 508.3 L310.8 504.1 L312.2 510.4 L313.6 508.3 L315.0 523.1 L316.3 510.4 L317.7 512.5 L319.1 510.4 L320.5 506.2 L321.9 508.3 L323.3 508.3 L324.7 512.5 L326.0 502.0 L327.4 514.6 L328.8 506.2 L330.2 510.4 L331.6 508.3 L333.0 514.6 L334.4 518.9 L335.7 516.8 L337.1 518.9 L338.5 510.4 L339.9 516.8 L341.3 510.4 L342.7 516.8 L344.1 514.6 L345.4 508.3 L346.8 506.2 L348.2 506.2 L349.6 504.1 L351.0 518.9 L352.4 521.0 L353.8 510.4 L355.1 514.6 L356.5 512.5 L357.9 518.9 L359.3 510.4 L360.7 508.3 L362.1 518.9 L363.5 514.6 L364.8 510.4 L366.2 518.9 L367.6 512.5 L369.0 523.1 L370.4 512.5 L371.8 504.1 L373.2 516.8 L374.5 514.6 L375.9 510.4 L377.3 510.4 L378.7 508.3 L380.1 504.1 L381.5 506.2 L382.9 502.0 L384.2 508.3 L385.6 504.1 L387.0 508.3 L388.4 512.5 L389.8 514.6 L391.2 512.5 L392.6 506.2 L393.9 516.8 L395.3 512.5 L396.7 506.2 L398.1 508.3 L399.5 510.4 L400.9 506.2 L402.3 508.3 L403.6 508.3 L405.0 510.4 L406.4 512.5 L407.8 506.2 L409.2 508.3 L410.6 504.1 L412.0 518.9 L413.3 510.4 L414.7 514.6 L416.1 514.6 L417.5 506.2 L418.9 506.2 L420.3 508.3 L421.7 510.4 L423.0 506.2 L424.4 508.3 L425.8 504.1 L427.2 506.2 L428.6 508.3 L430.0 504.1 L431.4 508.3 L432.7 502.0 L434.1 506.2 L435.5 508.3 L436.9 504.1 L438.3 504.1 L439.7 518.9 L441.1 516.8 L442.4 506.2 L443.8 508.3 L445.2 504.1 L446.6 506.2 L448.0 504.1 L449.4 508.3 L450.8 506.2 L452.1 504.1 L453.5 516.8 L454.9 510.4 L456.3 506.2 L457.7 512.5 L459.1 512.5 L460.5 506.2 L461.8 512.5 L463.2 506.2 L464.6 510.4 L466.0 510.4 L467.4 510.4 L468.8 508.3 L470.2 497.7 L471.5 512.5 L472.9 510.4 L474.3 508.3 L475.7 508.3 L477.1 506.2 L478.5 514.6 L479.8 506.2 L481.2 508.3 L482.6 506.2 L484.0 508.3 L485.4 508.3 L486.8 506.2 L488.2 512.5 L489.5 510.4 L490.9 508.3 L492.3 504.1 L493.7 506.2 L495.1 510.4 L496.5 508.3 L497.9 506.2 L499.2 508.3 L500.6 514.6 L502.0 514.6 L503.4 506.2 L504.8 504.1 L506.2 512.5 L507.6 504.1 L508.9 504.1 L510.3 504.1 L511.7 508.3 L513.1 514.6 L514.5 506.2 L515.9 506.2 L517.3 516.8 L518.6 512.5 L520.0 512.5 L521.4 518.9 L522.8 512.5 L524.2 518.9 L525.6 518.9 L527.0 514.6 L528.3 512.5 L529.7 510.4 L531.1 504.1 L532.5 508.3 L533.9 516.8 L535.3 516.8 L536.7 516.8 L538.0 506.2 L539.4 508.3 L540.8 518.9 L542.2 527.3 L543.6 523.1 L545.0 512.5 L546.4 506.2 L547.7 506.2 L549.1 514.6 L550.5 510.4 L551.9 506.2 L553.3 506.2 L554.7 512.5 L556.1 504.1 L557.4 516.8 L558.8 523.1 L560.2 508.3 L561.6 514.6 L563.0 506.2 L564.4 504.1 L565.8 512.5 L567.1 514.6 L568.5 514.6 L569.9 514.6 L571.3 510.4 L572.7 508.3 L574.1 512.5 L575.5 508.3 L576.8 508.3 L578.2 514.6 L579.6 514.6 L581.0 508.3 L582.4 504.1 L583.8 521.0 L585.2 510.4 L586.5 516.8 L587.9 512.5 L589.3 506.2 L590.7 518.9 L592.1 510.4 L593.5 516.8 L594.9 508.3 L596.2 523.1 L597.6 510.4 L599.0 510.4 L600.4 512.5 L601.8 506.2 L603.2 510.4 L604.6 506.2 L605.9 495.6 L607.3 506.2 L608.7 504.1 L610.1 504.1 L611.5 502.0 L612.9 495.6 L614.3 497.7 L615.6 504.1 L617.0 506.2 L618.4 510.4 L619.8 491.4 L621.2 495.6 L622.6 512.5 L624.0 510.4 L625.3 506.2 L626.7 504.1 L628.1 506.2 L629.5 502.0 L630.9 499.9 L632.3 508.3 L633.7 504.1 L635.0 499.9 L636.4 497.7 L637.8 497.7 L639.2 508.3 L640.6 499.9 L642.0 499.9 L643.4 499.9 L644.7 499.9 L646.1 497.7 L647.5 504.1 L648.9 514.6 L650.3 499.9 L651.7 510.4 L653.1 512.5 L654.4 510.4 L655.8 512.5 L657.2 510.4 L658.6 510.4 L660.0 510.4 L661.4 508.3 L662.8 504.1 L664.1 508.3 L665.5 510.4 L666.9 506.2 L668.3 510.4 L669.7 506.2 L671.1 504.1 L672.5 506.2 L673.8 506.2 L675.2 506.2 L676.6 504.1 L678.0 499.9 L679.4 497.7 L680.8 499.9 L682.2 499.9 L683.5 499.9 L684.9 499.9 L686.3 499.9 L687.7 497.7 L689.1 504.1 L690.5 495.6 L691.9 499.9 L693.2 499.9 L694.6 516.8 L696.0 512.5 L697.4 510.4 L698.8 502.0 L700.2 495.6 L701.6 502.0 L702.9 504.1 L704.3 497.7 L705.7 495.6 L707.1 499.9 L708.5 499.9 L709.9 499.9 L711.3 495.6 L712.6 502.0 L714.0 495.6 L715.4 497.7 L716.8 495.6 L718.2 497.7 L719.6 497.7 L721.0 499.9 L722.3 497.7 L723.7 495.6 L725.1 499.9 L726.5 506.2 L727.9 508.3 L729.3 499.9 L730.7 504.1 L732.0 506.2 L733.4 504.1 L734.8 499.9 L736.2 506.2 L737.6 497.7 L739.0 506.2 L740.4 499.9 L741.7 512.5 L743.1 518.9 L744.5 510.4 L745.9 516.8 L747.3 518.9 L748.7 510.4 L750.1 510.4 L751.4 516.8 L752.8 516.8 L754.2 506.2 L755.6 514.6 L757.0 499.9 L758.4 497.7 L759.7 514.6 L761.1 504.1 L762.5 506.2 L763.9 502.0 L765.3 508.3 L766.7 508.3 L768.1 499.9 L769.4 508.3 L770.8 504.1 L772.2 495.6 L773.6 504.1 L775.0 504.1 L776.4 493.5 L777.8 512.5 L779.1 512.5 L780.5 506.2 L781.9 514.6 L783.3 499.9 L784.7 506.2 L786.1 510.4 L787.5 506.2 L788.8 523.1 L790.2 508.3 L791.6 508.3 L793.0 502.0 L794.4 512.5 L795.8 514.6 L797.2 516.8 L798.5 525.2 L799.9 527.3 L801.3 521.0 L802.7 512.5 L804.1 506.2 L805.5 506.2 L806.9 516.8 L808.2 506.2 L809.6 506.2 L811.0 527.3 L812.4 510.4 L813.8 508.3 L815.2 495.6 L816.6 499.9 L817.9 518.9 L819.3 518.9 L820.7 516.8 L822.1 529.4 L823.5 527.3 L824.9 491.4 L826.3 495.6 L827.6 497.7 L829.0 497.7 L830.4 504.1 L831.8 495.6 L833.2 497.7 L834.6 497.7 L836.0 497.7 L837.3 497.7 L838.7 497.7 L840.1 495.6 L841.5 495.6 L842.9 499.9 L844.3 495.6 L845.7 491.4 L847.0 491.4 L848.4 493.5 L849.8 495.6 L851.2 495.6 L852.6 495.6 L854.0 495.6 L855.4 495.6 L856.7 495.6 L858.1 518.9 L859.5 493.5 L860.9 497.7 L862.3 497.7 L863.7 499.9 L865.1 502.0 L866.4 499.9 L867.8 499.9 L869.2 493.5 L870.6 495.6 L872.0 499.9 L873.4 499.9 L874.8 497.7 L876.1 497.7 L877.5 495.6 L878.9 497.7 L880.3 493.5 L881.7 493.5 L883.1 499.9 L884.5 491.4 L885.8 504.1 L887.2 480.8 L888.6 504.1 L890.0 504.1 L890 540 L60 540 Z" fill="url(#gradff52a8)"/><path d="M60.0 497.7 L61.4 499.9 L62.8 508.3 L64.2 502.0 L65.5 504.1 L66.9 506.2 L68.3 502.0 L69.7 506.2 L71.1 491.4 L72.5 493.5 L73.9 497.7 L75.2 497.7 L76.6 491.4 L78.0 497.7 L79.4 506.2 L80.8 508.3 L82.2 493.5 L83.6 510.4 L84.9 504.1 L86.3 502.0 L87.7 504.1 L89.1 504.1 L90.5 512.5 L91.9 508.3 L93.3 504.1 L94.6 502.0 L96.0 499.9 L97.4 499.9 L98.8 510.4 L100.2 497.7 L101.6 512.5 L103.0 510.4 L104.3 514.6 L105.7 512.5 L107.1 495.6 L108.5 512.5 L109.9 514.6 L111.3 495.6 L112.7 504.1 L114.0 499.9 L115.4 504.1 L116.8 504.1 L118.2 499.9 L119.6 502.0 L121.0 508.3 L122.4 502.0 L123.7 506.2 L125.1 512.5 L126.5 512.5 L127.9 502.0 L129.3 514.6 L130.7 506.2 L132.1 502.0 L133.4 499.9 L134.8 506.2 L136.2 504.1 L137.6 508.3 L139.0 516.8 L140.4 512.5 L141.8 512.5 L143.1 510.4 L144.5 508.3 L145.9 506.2 L147.3 504.1 L148.7 508.3 L150.1 502.0 L151.5 493.5 L152.8 493.5 L154.2 499.9 L155.6 499.9 L157.0 504.1 L158.4 497.7 L159.8 497.7 L161.2 497.7 L162.5 495.6 L163.9 497.7 L165.3 497.7 L166.7 497.7 L168.1 502.0 L169.5 495.6 L170.9 508.3 L172.2 497.7 L173.6 495.6 L175.0 497.7 L176.4 497.7 L177.8 504.1 L179.2 497.7 L180.6 495.6 L181.9 495.6 L183.3 499.9 L184.7 499.9 L186.1 499.9 L187.5 499.9 L188.9 499.9 L190.3 495.6 L191.6 495.6 L193.0 497.7 L194.4 497.7 L195.8 499.9 L197.2 510.4 L198.6 499.9 L199.9 499.9 L201.3 502.0 L202.7 497.7 L204.1 504.1 L205.5 499.9 L206.9 497.7 L208.3 497.7 L209.6 510.4 L211.0 510.4 L212.4 495.6 L213.8 499.9 L215.2 506.2 L216.6 514.6 L218.0 508.3 L219.3 506.2 L220.7 499.9 L222.1 497.7 L223.5 497.7 L224.9 510.4 L226.3 508.3 L227.7 497.7 L229.0 499.9 L230.4 502.0 L231.8 497.7 L233.2 499.9 L234.6 502.0 L236.0 502.0 L237.4 502.0 L238.7 504.1 L240.1 497.7 L241.5 499.9 L242.9 497.7 L244.3 497.7 L245.7 508.3 L247.1 499.9 L248.4 497.7 L249.8 504.1 L251.2 504.1 L252.6 502.0 L254.0 495.6 L255.4 495.6 L256.8 504.1 L258.1 499.9 L259.5 497.7 L260.9 504.1 L262.3 506.2 L263.7 504.1 L265.1 499.9 L266.5 497.7 L267.8 497.7 L269.2 508.3 L270.6 504.1 L272.0 510.4 L273.4 504.1 L274.8 514.6 L276.2 502.0 L277.5 504.1 L278.9 504.1 L280.3 508.3 L281.7 506.2 L283.1 502.0 L284.5 495.6 L285.9 493.5 L287.2 508.3 L288.6 510.4 L290.0 495.6 L291.4 493.5 L292.8 499.9 L294.2 510.4 L295.6 499.9 L296.9 510.4 L298.3 512.5 L299.7 504.1 L301.1 499.9 L302.5 518.9 L303.9 504.1 L305.3 495.6 L306.6 506.2 L308.0 504.1 L309.4 508.3 L310.8 504.1 L312.2 510.4 L313.6 508.3 L315.0 523.1 L316.3 510.4 L317.7 512.5 L319.1 510.4 L320.5 506.2 L321.9 508.3 L323.3 508.3 L324.7 512.5 L326.0 502.0 L327.4 514.6 L328.8 506.2 L330.2 510.4 L331.6 508.3 L333.0 514.6 L334.4 518.9 L335.7 516.8 L337.1 518.9 L338.5 510.4 L339.9 516.8 L341.3 510.4 L342.7 516.8 L344.1 514.6 L345.4 508.3 L346.8 506.2 L348.2 506.2 L349.6 504.1 L351.0 518.9 L352.4 521.0 L353.8 510.4 L355.1 514.6 L356.5 512.5 L357.9 518.9 L359.3 510.4 L360.7 508.3 L362.1 518.9 L363.5 514.6 L364.8 510.4 L366.2 518.9 L367.6 512.5 L369.0 523.1 L370.4 512.5 L371.8 504.1 L373.2 516.8 L374.5 514.6 L375.9 510.4 L377.3 510.4 L378.7 508.3 L380.1 504.1 L381.5 506.2 L382.9 502.0 L384.2 508.3 L385.6 504.1 L387.0 508.3 L388.4 512.5 L389.8 514.6 L391.2 512.5 L392.6 506.2 L393.9 516.8 L395.3 512.5 L396.7 506.2 L398.1 508.3 L399.5 510.4 L400.9 506.2 L402.3 508.3 L403.6 508.3 L405.0 510.4 L406.4 512.5 L407.8 506.2 L409.2 508.3 L410.6 504.1 L412.0 518.9 L413.3 510.4 L414.7 514.6 L416.1 514.6 L417.5 506.2 L418.9 506.2 L420.3 508.3 L421.7 510.4 L423.0 506.2 L424.4 508.3 L425.8 504.1 L427.2 506.2 L428.6 508.3 L430.0 504.1 L431.4 508.3 L432.7 502.0 L434.1 506.2 L435.5 508.3 L436.9 504.1 L438.3 504.1 L439.7 518.9 L441.1 516.8 L442.4 506.2 L443.8 508.3 L445.2 504.1 L446.6 506.2 L448.0 504.1 L449.4 508.3 L450.8 506.2 L452.1 504.1 L453.5 516.8 L454.9 510.4 L456.3 506.2 L457.7 512.5 L459.1 512.5 L460.5 506.2 L461.8 512.5 L463.2 506.2 L464.6 510.4 L466.0 510.4 L467.4 510.4 L468.8 508.3 L470.2 497.7 L471.5 512.5 L472.9 510.4 L474.3 508.3 L475.7 508.3 L477.1 506.2 L478.5 514.6 L479.8 506.2 L481.2 508.3 L482.6 506.2 L484.0 508.3 L485.4 508.3 L486.8 506.2 L488.2 512.5 L489.5 510.4 L490.9 508.3 L492.3 504.1 L493.7 506.2 L495.1 510.4 L496.5 508.3 L497.9 506.2 L499.2 508.3 L500.6 514.6 L502.0 514.6 L503.4 506.2 L504.8 504.1 L506.2 512.5 L507.6 504.1 L508.9 504.1 L510.3 504.1 L511.7 508.3 L513.1 514.6 L514.5 506.2 L515.9 506.2 L517.3 516.8 L518.6 512.5 L520.0 512.5 L521.4 518.9 L522.8 512.5 L524.2 518.9 L525.6 518.9 L527.0 514.6 L528.3 512.5 L529.7 510.4 L531.1 504.1 L532.5 508.3 L533.9 516.8 L535.3 516.8 L536.7 516.8 L538.0 506.2 L539.4 508.3 L540.8 518.9 L542.2 527.3 L543.6 523.1 L545.0 512.5 L546.4 506.2 L547.7 506.2 L549.1 514.6 L550.5 510.4 L551.9 506.2 L553.3 506.2 L554.7 512.5 L556.1 504.1 L557.4 516.8 L558.8 523.1 L560.2 508.3 L561.6 514.6 L563.0 506.2 L564.4 504.1 L565.8 512.5 L567.1 514.6 L568.5 514.6 L569.9 514.6 L571.3 510.4 L572.7 508.3 L574.1 512.5 L575.5 508.3 L576.8 508.3 L578.2 514.6 L579.6 514.6 L581.0 508.3 L582.4 504.1 L583.8 521.0 L585.2 510.4 L586.5 516.8 L587.9 512.5 L589.3 506.2 L590.7 518.9 L592.1 510.4 L593.5 516.8 L594.9 508.3 L596.2 523.1 L597.6 510.4 L599.0 510.4 L600.4 512.5 L601.8 506.2 L603.2 510.4 L604.6 506.2 L605.9 495.6 L607.3 506.2 L608.7 504.1 L610.1 504.1 L611.5 502.0 L612.9 495.6 L614.3 497.7 L615.6 504.1 L617.0 506.2 L618.4 510.4 L619.8 491.4 L621.2 495.6 L622.6 512.5 L624.0 510.4 L625.3 506.2 L626.7 504.1 L628.1 506.2 L629.5 502.0 L630.9 499.9 L632.3 508.3 L633.7 504.1 L635.0 499.9 L636.4 497.7 L637.8 497.7 L639.2 508.3 L640.6 499.9 L642.0 499.9 L643.4 499.9 L644.7 499.9 L646.1 497.7 L647.5 504.1 L648.9 514.6 L650.3 499.9 L651.7 510.4 L653.1 512.5 L654.4 510.4 L655.8 512.5 L657.2 510.4 L658.6 510.4 L660.0 510.4 L661.4 508.3 L662.8 504.1 L664.1 508.3 L665.5 510.4 L666.9 506.2 L668.3 510.4 L669.7 506.2 L671.1 504.1 L672.5 506.2 L673.8 506.2 L675.2 506.2 L676.6 504.1 L678.0 499.9 L679.4 497.7 L680.8 499.9 L682.2 499.9 L683.5 499.9 L684.9 499.9 L686.3 499.9 L687.7 497.7 L689.1 504.1 L690.5 495.6 L691.9 499.9 L693.2 499.9 L694.6 516.8 L696.0 512.5 L697.4 510.4 L698.8 502.0 L700.2 495.6 L701.6 502.0 L702.9 504.1 L704.3 497.7 L705.7 495.6 L707.1 499.9 L708.5 499.9 L709.9 499.9 L711.3 495.6 L712.6 502.0 L714.0 495.6 L715.4 497.7 L716.8 495.6 L718.2 497.7 L719.6 497.7 L721.0 499.9 L722.3 497.7 L723.7 495.6 L725.1 499.9 L726.5 506.2 L727.9 508.3 L729.3 499.9 L730.7 504.1 L732.0 506.2 L733.4 504.1 L734.8 499.9 L736.2 506.2 L737.6 497.7 L739.0 506.2 L740.4 499.9 L741.7 512.5 L743.1 518.9 L744.5 510.4 L745.9 516.8 L747.3 518.9 L748.7 510.4 L750.1 510.4 L751.4 516.8 L752.8 516.8 L754.2 506.2 L755.6 514.6 L757.0 499.9 L758.4 497.7 L759.7 514.6 L761.1 504.1 L762.5 506.2 L763.9 502.0 L765.3 508.3 L766.7 508.3 L768.1 499.9 L769.4 508.3 L770.8 504.1 L772.2 495.6 L773.6 504.1 L775.0 504.1 L776.4 493.5 L777.8 512.5 L779.1 512.5 L780.5 506.2 L781.9 514.6 L783.3 499.9 L784.7 506.2 L786.1 510.4 L787.5 506.2 L788.8 523.1 L790.2 508.3 L791.6 508.3 L793.0 502.0 L794.4 512.5 L795.8 514.6 L797.2 516.8 L798.5 525.2 L799.9 527.3 L801.3 521.0 L802.7 512.5 L804.1 506.2 L805.5 506.2 L806.9 516.8 L808.2 506.2 L809.6 506.2 L811.0 527.3 L812.4 510.4 L813.8 508.3 L815.2 495.6 L816.6 499.9 L817.9 518.9 L819.3 518.9 L820.7 516.8 L822.1 529.4 L823.5 527.3 L824.9 491.4 L826.3 495.6 L827.6 497.7 L829.0 497.7 L830.4 504.1 L831.8 495.6 L833.2 497.7 L834.6 497.7 L836.0 497.7 L837.3 497.7 L838.7 497.7 L840.1 495.6 L841.5 495.6 L842.9 499.9 L844.3 495.6 L845.7 491.4 L847.0 491.4 L848.4 493.5 L849.8 495.6 L851.2 495.6 L852.6 495.6 L854.0 495.6 L855.4 495.6 L856.7 495.6 L858.1 518.9 L859.5 493.5 L860.9 497.7 L862.3 497.7 L863.7 499.9 L865.1 502.0 L866.4 499.9 L867.8 499.9 L869.2 493.5 L870.6 495.6 L872.0 499.9 L873.4 499.9 L874.8 497.7 L876.1 497.7 L877.5 495.6 L878.9 497.7 L880.3 493.5 L881.7 493.5 L883.1 499.9 L884.5 491.4 L885.8 504.1 L887.2 480.8 L888.6 504.1 L890.0 504.1 " fill="none" stroke="#ff52a8" stroke-width="2" stroke-linejoin="round"/>
<text x="40" y="606" fill="#b14dff" font-size="15" font-weight="600">Sleep stages (hypnogram, from Stage column)</text>
<line x1="60" y1="620" x2="890" y2="620" stroke="rgba(255,255,255,.07)"/><text x="52" y="624" fill="#8c95c2" font-size="13" text-anchor="end">Wake</text><line x1="60" y1="657.5" x2="890" y2="657.5" stroke="rgba(255,255,255,.07)"/><text x="52" y="661.5" fill="#8c95c2" font-size="13" text-anchor="end">REM</text><line x1="60" y1="695" x2="890" y2="695" stroke="rgba(255,255,255,.07)"/><text x="52" y="699" fill="#8c95c2" font-size="13" text-anchor="end">N1</text><line x1="60" y1="732.5" x2="890" y2="732.5" stroke="rgba(255,255,255,.07)"/><text x="52" y="736.5" fill="#8c95c2" font-size="13" text-anchor="end">N2</text><line x1="60" y1="770" x2="890" y2="770" stroke="rgba(255,255,255,.07)"/><text x="52" y="774" fill="#8c95c2" font-size="13" text-anchor="end">N3</text><text x="60" y="788" fill="#6f78a8" font-size="12" text-anchor="middle">19:59</text><text x="267.5" y="788" fill="#6f78a8" font-size="12" text-anchor="middle">21:54</text><text x="475" y="788" fill="#6f78a8" font-size="12" text-anchor="middle">23:49</text><text x="682.5" y="788" fill="#6f78a8" font-size="12" text-anchor="middle">01:44</text><text x="890" y="788" fill="#6f78a8" font-size="12" text-anchor="middle">03:39</text><path d="M60.0 620.0 L61.2 620.0 L62.4 620.0 L63.6 620.0 L64.7 620.0 L65.9 620.0 L67.1 695.0 L68.3 695.0 L69.5 695.0 L70.7 695.0 L71.9 695.0 L73.1 695.0 L74.2 695.0 L75.4 695.0 L76.6 695.0 L77.8 695.0 L79.0 732.5 L80.2 732.5 L81.4 732.5 L82.6 732.5 L83.7 732.5 L84.9 732.5 L86.1 732.5 L87.3 732.5 L88.5 732.5 L89.7 732.5 L90.9 732.5 L92.1 732.5 L93.2 657.5 L94.4 657.5 L95.6 657.5 L96.8 657.5 L98.0 657.5 L99.2 657.5 L100.4 657.5 L101.6 657.5 L102.7 657.5 L103.9 657.5 L105.1 657.5 L106.3 657.5 L107.5 657.5 L108.7 657.5 L109.9 657.5 L111.1 657.5 L112.2 657.5 L113.4 657.5 L114.6 657.5 L115.8 657.5 L117.0 657.5 L118.2 657.5 L119.4 657.5 L120.6 657.5 L121.7 657.5 L122.9 657.5 L124.1 657.5 L125.3 732.5 L126.5 732.5 L127.7 732.5 L128.9 732.5 L130.1 732.5 L131.2 732.5 L132.4 732.5 L133.6 732.5 L134.8 732.5 L136.0 732.5 L137.2 732.5 L138.4 732.5 L139.6 732.5 L140.7 732.5 L141.9 732.5 L143.1 732.5 L144.3 732.5 L145.5 732.5 L146.7 732.5 L147.9 732.5 L149.1 732.5 L150.2 732.5 L151.4 732.5 L152.6 732.5 L153.8 732.5 L155.0 732.5 L156.2 732.5 L157.4 732.5 L158.6 732.5 L159.7 732.5 L160.9 732.5 L162.1 732.5 L163.3 732.5 L164.5 657.5 L165.7 657.5 L166.9 657.5 L168.1 657.5 L169.2 657.5 L170.4 657.5 L171.6 657.5 L172.8 657.5 L174.0 657.5 L175.2 657.5 L176.4 657.5 L177.6 657.5 L178.7 657.5 L179.9 657.5 L181.1 657.5 L182.3 657.5 L183.5 657.5 L184.7 657.5 L185.9 657.5 L187.1 657.5 L188.2 657.5 L189.4 657.5 L190.6 657.5 L191.8 657.5 L193.0 657.5 L194.2 657.5 L195.4 657.5 L196.6 657.5 L197.7 657.5 L198.9 657.5 L200.1 657.5 L201.3 657.5 L202.5 657.5 L203.7 657.5 L204.9 657.5 L206.1 657.5 L207.2 657.5 L208.4 657.5 L209.6 657.5 L210.8 657.5 L212.0 657.5 L213.2 657.5 L214.4 657.5 L215.6 657.5 L216.7 657.5 L217.9 657.5 L219.1 732.5 L220.3 732.5 L221.5 732.5 L222.7 732.5 L223.9 732.5 L225.1 732.5 L226.2 732.5 L227.4 732.5 L228.6 732.5 L229.8 732.5 L231.0 732.5 L232.2 732.5 L233.4 732.5 L234.5 732.5 L235.7 732.5 L236.9 732.5 L238.1 732.5 L239.3 732.5 L240.5 732.5 L241.7 732.5 L242.9 732.5 L244.0 732.5 L245.2 732.5 L246.4 732.5 L247.6 732.5 L248.8 732.5 L250.0 732.5 L251.2 732.5 L252.4 732.5 L253.5 732.5 L254.7 732.5 L255.9 732.5 L257.1 732.5 L258.3 732.5 L259.5 732.5 L260.7 732.5 L261.9 732.5 L263.0 732.5 L264.2 732.5 L265.4 732.5 L266.6 732.5 L267.8 732.5 L269.0 732.5 L270.2 732.5 L271.4 732.5 L272.5 732.5 L273.7 732.5 L274.9 770.0 L276.1 770.0 L277.3 770.0 L278.5 770.0 L279.7 770.0 L280.9 770.0 L282.0 770.0 L283.2 770.0 L284.4 770.0 L285.6 770.0 L286.8 770.0 L288.0 770.0 L289.2 770.0 L290.4 770.0 L291.5 770.0 L292.7 770.0 L293.9 770.0 L295.1 732.5 L296.3 732.5 L297.5 732.5 L298.7 732.5 L299.9 732.5 L301.0 732.5 L302.2 732.5 L303.4 732.5 L304.6 732.5 L305.8 732.5 L307.0 732.5 L308.2 732.5 L309.4 620.0 L310.5 695.0 L311.7 695.0 L312.9 695.0 L314.1 695.0 L315.3 695.0 L316.5 695.0 L317.7 695.0 L318.9 695.0 L320.0 695.0 L321.2 695.0 L322.4 695.0 L323.6 695.0 L324.8 695.0 L326.0 695.0 L327.2 695.0 L328.4 695.0 L329.5 695.0 L330.7 695.0 L331.9 695.0 L333.1 732.5 L334.3 732.5 L335.5 732.5 L336.7 732.5 L337.9 732.5 L339.0 732.5 L340.2 732.5 L341.4 732.5 L342.6 732.5 L343.8 732.5 L345.0 732.5 L346.2 732.5 L347.4 732.5 L348.5 732.5 L349.7 732.5 L350.9 732.5 L352.1 732.5 L353.3 732.5 L354.5 732.5 L355.7 732.5 L356.9 732.5 L358.0 732.5 L359.2 732.5 L360.4 732.5 L361.6 732.5 L362.8 732.5 L364.0 732.5 L365.2 732.5 L366.4 732.5 L367.5 732.5 L368.7 732.5 L369.9 732.5 L371.1 732.5 L372.3 732.5 L373.5 732.5 L374.7 732.5 L375.9 732.5 L377.0 732.5 L378.2 732.5 L379.4 657.5 L380.6 657.5 L381.8 657.5 L383.0 657.5 L384.2 657.5 L385.4 657.5 L386.5 657.5 L387.7 657.5 L388.9 657.5 L390.1 657.5 L391.3 657.5 L392.5 657.5 L393.7 657.5 L394.8 657.5 L396.0 657.5 L397.2 657.5 L398.4 657.5 L399.6 657.5 L400.8 657.5 L402.0 657.5 L403.2 657.5 L404.3 657.5 L405.5 657.5 L406.7 657.5 L407.9 657.5 L409.1 657.5 L410.3 657.5 L411.5 657.5 L412.7 657.5 L413.8 657.5 L415.0 657.5 L416.2 657.5 L417.4 657.5 L418.6 657.5 L419.8 657.5 L421.0 657.5 L422.2 657.5 L423.3 657.5 L424.5 657.5 L425.7 657.5 L426.9 657.5 L428.1 657.5 L429.3 657.5 L430.5 657.5 L431.7 657.5 L432.8 657.5 L434.0 732.5 L435.2 732.5 L436.4 732.5 L437.6 732.5 L438.8 732.5 L440.0 732.5 L441.2 732.5 L442.3 732.5 L443.5 732.5 L444.7 732.5 L445.9 732.5 L447.1 732.5 L448.3 732.5 L449.5 732.5 L450.7 732.5 L451.8 732.5 L453.0 732.5 L454.2 732.5 L455.4 732.5 L456.6 732.5 L457.8 732.5 L459.0 732.5 L460.2 732.5 L461.3 732.5 L462.5 732.5 L463.7 732.5 L464.9 732.5 L466.1 732.5 L467.3 732.5 L468.5 732.5 L469.7 620.0 L470.8 620.0 L472.0 695.0 L473.2 695.0 L474.4 695.0 L475.6 695.0 L476.8 695.0 L478.0 695.0 L479.2 732.5 L480.3 732.5 L481.5 732.5 L482.7 732.5 L483.9 732.5 L485.1 732.5 L486.3 732.5 L487.5 732.5 L488.7 732.5 L489.8 732.5 L491.0 732.5 L492.2 732.5 L493.4 732.5 L494.6 732.5 L495.8 732.5 L497.0 732.5 L498.2 732.5 L499.3 732.5 L500.5 732.5 L501.7 732.5 L502.9 732.5 L504.1 732.5 L505.3 732.5 L506.5 732.5 L507.7 732.5 L508.8 732.5 L510.0 732.5 L511.2 732.5 L512.4 732.5 L513.6 732.5 L514.8 732.5 L516.0 732.5 L517.2 657.5 L518.3 732.5 L519.5 732.5 L520.7 657.5 L521.9 657.5 L523.1 657.5 L524.3 657.5 L525.5 657.5 L526.7 657.5 L527.8 657.5 L529.0 657.5 L530.2 657.5 L531.4 657.5 L532.6 657.5 L533.8 657.5 L535.0 657.5 L536.2 657.5 L537.3 657.5 L538.5 657.5 L539.7 657.5 L540.9 657.5 L542.1 657.5 L543.3 657.5 L544.5 657.5 L545.7 657.5 L546.8 657.5 L548.0 657.5 L549.2 620.0 L550.4 695.0 L551.6 695.0 L552.8 695.0 L554.0 695.0 L555.2 695.0 L556.3 695.0 L557.5 695.0 L558.7 732.5 L559.9 732.5 L561.1 732.5 L562.3 732.5 L563.5 732.5 L564.6 732.5 L565.8 732.5 L567.0 732.5 L568.2 732.5 L569.4 732.5 L570.6 732.5 L571.8 732.5 L573.0 732.5 L574.1 732.5 L575.3 732.5 L576.5 732.5 L577.7 732.5 L578.9 732.5 L580.1 732.5 L581.3 732.5 L582.5 732.5 L583.6 732.5 L584.8 732.5 L586.0 732.5 L587.2 732.5 L588.4 732.5 L589.6 732.5 L590.8 732.5 L592.0 732.5 L593.1 732.5 L594.3 732.5 L595.5 732.5 L596.7 732.5 L597.9 732.5 L599.1 732.5 L600.3 732.5 L601.5 732.5 L602.6 732.5 L603.8 657.5 L605.0 657.5 L606.2 657.5 L607.4 657.5 L608.6 657.5 L609.8 657.5 L611.0 620.0 L612.1 695.0 L613.3 695.0 L614.5 695.0 L615.7 620.0 L616.9 620.0 L618.1 620.0 L619.3 620.0 L620.5 620.0 L621.6 695.0 L622.8 695.0 L624.0 695.0 L625.2 695.0 L626.4 695.0 L627.6 695.0 L628.8 695.0 L630.0 695.0 L631.1 695.0 L632.3 695.0 L633.5 695.0 L634.7 695.0 L635.9 695.0 L637.1 695.0 L638.3 695.0 L639.5 620.0 L640.6 695.0 L641.8 695.0 L643.0 620.0 L644.2 695.0 L645.4 695.0 L646.6 695.0 L647.8 695.0 L649.0 695.0 L650.1 695.0 L651.3 695.0 L652.5 732.5 L653.7 732.5 L654.9 732.5 L656.1 732.5 L657.3 732.5 L658.5 732.5 L659.6 732.5 L660.8 732.5 L662.0 732.5 L663.2 732.5 L664.4 732.5 L665.6 732.5 L666.8 732.5 L668.0 732.5 L669.1 732.5 L670.3 732.5 L671.5 732.5 L672.7 732.5 L673.9 732.5 L675.1 732.5 L676.3 732.5 L677.5 732.5 L678.6 732.5 L679.8 732.5 L681.0 732.5 L682.2 732.5 L683.4 732.5 L684.6 732.5 L685.8 732.5 L687.0 732.5 L688.1 732.5 L689.3 732.5 L690.5 732.5 L691.7 732.5 L692.9 732.5 L694.1 732.5 L695.3 732.5 L696.5 657.5 L697.6 657.5 L698.8 657.5 L700.0 657.5 L701.2 657.5 L702.4 657.5 L703.6 657.5 L704.8 657.5 L706.0 657.5 L707.1 657.5 L708.3 657.5 L709.5 657.5 L710.7 657.5 L711.9 657.5 L713.1 657.5 L714.3 657.5 L715.5 657.5 L716.6 657.5 L717.8 657.5 L719.0 732.5 L720.2 732.5 L721.4 732.5 L722.6 732.5 L723.8 732.5 L724.9 732.5 L726.1 732.5 L727.3 732.5 L728.5 732.5 L729.7 732.5 L730.9 732.5 L732.1 732.5 L733.3 732.5 L734.4 732.5 L735.6 732.5 L736.8 732.5 L738.0 732.5 L739.2 732.5 L740.4 732.5 L741.6 732.5 L742.8 732.5 L743.9 732.5 L745.1 657.5 L746.3 657.5 L747.5 657.5 L748.7 657.5 L749.9 657.5 L751.1 657.5 L752.3 657.5 L753.4 657.5 L754.6 657.5 L755.8 657.5 L757.0 657.5 L758.2 657.5 L759.4 657.5 L760.6 657.5 L761.8 657.5 L762.9 657.5 L764.1 657.5 L765.3 657.5 L766.5 657.5 L767.7 657.5 L768.9 657.5 L770.1 657.5 L771.3 657.5 L772.4 657.5 L773.6 657.5 L774.8 657.5 L776.0 657.5 L777.2 657.5 L778.4 657.5 L779.6 657.5 L780.8 657.5 L781.9 657.5 L783.1 657.5 L784.3 657.5 L785.5 657.5 L786.7 657.5 L787.9 657.5 L789.1 657.5 L790.3 657.5 L791.4 657.5 L792.6 657.5 L793.8 657.5 L795.0 657.5 L796.2 657.5 L797.4 657.5 L798.6 657.5 L799.8 732.5 L800.9 732.5 L802.1 732.5 L803.3 732.5 L804.5 732.5 L805.7 732.5 L806.9 732.5 L808.1 732.5 L809.3 732.5 L810.4 732.5 L811.6 732.5 L812.8 732.5 L814.0 732.5 L815.2 732.5 L816.4 732.5 L817.6 732.5 L818.8 732.5 L819.9 732.5 L821.1 620.0 L822.3 620.0 L823.5 620.0 L824.7 620.0 L825.9 620.0 L827.1 695.0 L828.3 695.0 L829.4 695.0 L830.6 695.0 L831.8 695.0 L833.0 695.0 L834.2 732.5 L835.4 732.5 L836.6 732.5 L837.8 732.5 L838.9 732.5 L840.1 732.5 L841.3 732.5 L842.5 732.5 L843.7 732.5 L844.9 732.5 L846.1 732.5 L847.3 732.5 L848.4 732.5 L849.6 732.5 L850.8 620.0 L852.0 695.0 L853.2 695.0 L854.4 695.0 L855.6 695.0 L856.8 695.0 L857.9 695.0 L859.1 695.0 L860.3 695.0 L861.5 620.0 L862.7 620.0 L863.9 620.0 L865.1 695.0 L866.3 695.0 L867.4 695.0 L868.6 695.0 L869.8 695.0 L871.0 695.0 L872.2 732.5 L873.4 732.5 L874.6 732.5 L875.8 732.5 L876.9 732.5 L878.1 732.5 L879.3 732.5 L880.5 732.5 L881.7 732.5 L882.9 732.5 L884.1 732.5 L885.3 732.5 L886.4 732.5 L887.6 732.5 L888.8 732.5 L890.0 732.5 " fill="none" stroke="#b14dff" stroke-width="2" stroke-linejoin="round"/>
<text x="40" y="836" fill="#a8b0d8" font-size="13">Generated by SleepConverter from RawDataSecond export · for documentation</text>
</svg>